<?xml version="1.0" encoding="UTF-8" standalone="no"?>
<svg
   xmlns:dc="http://purl.org/dc/elements/1.1/"
   xmlns:cc="http://creativecommons.org/ns#"
   xmlns:rdf="http://www.w3.org/1999/02/22-rdf-syntax-ns#"
   xmlns:svg="http://www.w3.org/2000/svg"
   xmlns="http://www.w3.org/2000/svg"
   xmlns:sodipodi="http://sodipodi.sourceforge.net/DTD/sodipodi-0.dtd"
   xmlns:inkscape="http://www.inkscape.org/namespaces/inkscape"
   width="166.2mm"
   height="184mm"
   viewBox="0 0 166.2 184"
   version="1.1"
   id="svg8"
   inkscape:version="1.0.2 (e86c870879, 2021-01-15, custom)"
   sodipodi:docname="CoinWhite.svg">
  <defs
     id="defs2" />
  <sodipodi:namedview
     id="base"
     pagecolor="#ffffff"
     bordercolor="#666666"
     borderopacity="1.0"
     inkscape:pageopacity="0.0"
     inkscape:pageshadow="2"
     inkscape:zoom="1.4"
     inkscape:cx="245.4264"
     inkscape:cy="385.38509"
     inkscape:document-units="mm"
     inkscape:current-layer="layer1"
     inkscape:document-rotation="0"
     showgrid="false"
     inkscape:window-width="1920"
     inkscape:window-height="1057"
     inkscape:window-x="1912"
     inkscape:window-y="-8"
     inkscape:window-maximized="1" />
  <metadata
     id="metadata5">
    <rdf:RDF>
      <cc:Work
         rdf:about="">
        <dc:format>image/svg+xml</dc:format>
        <dc:type
           rdf:resource="http://purl.org/dc/dcmitype/StillImage" />
        <dc:title />
      </cc:Work>
    </rdf:RDF>
  </metadata>
  <g
     inkscape:label="Calque 1"
     inkscape:groupmode="layer"
     id="layer1">
    <path
       style="display:inline;fill:#ffffff;fill-opacity:0.993197;stroke:#000000;stroke-width:0.264583px;stroke-linecap:butt;stroke-linejoin:miter;stroke-opacity:1"
       d="M 88.525935,1.4844309 161.35688,42.643941 c 0,0 4.67722,2.73951 4.67722,9.153982 0,6.41447 0,81.116297 0,81.116297 0,0 0.60135,5.27857 -5.61266,8.75307 -6.21402,3.47451 -72.697315,40.95906 -72.697315,40.95906 0,0 -4.276317,2.80633 -9.020347,-0.13364 -4.744032,-2.93996 -74.7686483,-43.0972 -74.7686483,-43.0972 0,0 -3.67495598,-2.93997 -3.67495598,-7.2831 0,-4.34313 0.06682,-82.719917 0.06682,-82.719917 0,0 0.467721,-5.211752 6.28083398,-8.018092 C 12.420941,38.568071 79.171498,1.2839809 79.171498,1.2839809 c 0,0 4.74404,-2.47225 9.354437,0.20045 z"
       id="path1433" />
    <path
       style="display:inline;fill:#e3e3e4;fill-opacity:0.55102003;stroke:#000000;stroke-width:0.264583px;stroke-linecap:butt;stroke-linejoin:miter;stroke-opacity:1"
       d="M 88.088525,8.7526309 154.58363,46.522593 c 0,0 4.27034,2.51391 4.27034,8.40014 0,5.88623 0,74.436237 0,74.436237 0,0 0.54903,4.84387 -5.1244,8.03224 -5.67344,3.18837 -66.373095,37.58602 -66.373095,37.58602 0,0 -3.904307,2.57522 -8.235637,-0.12264 -4.331318,-2.69784 -68.264232,-39.54807 -68.264232,-39.54807 0,0 -3.3552583,-2.69787 -3.3552583,-6.68334 0,-3.98545 0.06101,-75.907797 0.06101,-75.907797 0,0 0.427032,-4.78254 5.7344393,-7.357782 5.307409,-2.57522 66.251081,-36.7889201 66.251081,-36.7889201 0,0 4.33133,-2.26865 8.540657,0.18395 z"
       id="path1433-0" />
    <path
       style="display:inline;fill:#f9f9f9;fill-opacity:0.89455801;stroke:#000000;stroke-width:0.264583px;stroke-linecap:butt;stroke-linejoin:miter;stroke-opacity:1"
       d="M 35.580603,63.725293 C 54.403037,36.158891 79.052718,38.951861 81.504708,38.778861 127.70744,39.834291 135.10764,85.375473 134.0434,92.262493 132.12871,141.76633 85.304058,145.36429 82.827628,144.99017 50.774564,146.50592 36.336555,121.74464 36.336555,121.74464 l 11.055804,-8.50447 c 23.170316,31.59844 56.551081,12.37951 59.491381,6.95185 l -1.68423,-1.81857 c 0,0 12.42629,-10.88071 12.29038,-25.438367 0.26498,-16.16127 -9.75106,-24.90243 -9.75106,-24.90243 l 1.45264,-1.37804 C 88.074525,44.983141 58.456363,52.157133 46.447419,72.985713 Z"
       id="path1455" />
    <path
       style="display:inline;fill:#fdffff;fill-opacity:1;stroke:#000000;stroke-width:0.264583px;stroke-linecap:butt;stroke-linejoin:miter;stroke-opacity:0.979592"
       d="m 46.447422,72.985713 c -10.931502,18.25401 -1.335991,37.024767 0.944938,40.254457 25.600196,33.49797 59.26141,9.626 59.49138,6.95185 L 78.953368,92.475083 109.19147,66.654613 c -27.152222,-26.405772 -55.621137,-7.57981 -62.744048,6.3311 z"
       id="path1459" />
    <path
       style="display:inline;fill:#ffffff;fill-opacity:1;stroke:#000000;stroke-width:0.264583px;stroke-linecap:butt;stroke-linejoin:miter;stroke-opacity:1"
       d="m 97.474205,41.141211 v -19.7965 l -5.38616,8.36272 0.0472,10.11087 z"
       id="path1481" />
    <path
       style="display:inline;fill:#ffffff;fill-opacity:1;stroke:#000000;stroke-width:0.264583px;stroke-linecap:butt;stroke-linejoin:miter;stroke-opacity:1"
       d="m 69.039275,39.793801 v -18.05652 l 5.38616,7.6277 -0.0639,9.53957 z"
       id="path1481-2" />
    <path
       style="display:inline;fill:#ffffff;fill-opacity:1;stroke:#000000;stroke-width:0.264583px;stroke-linecap:butt;stroke-linejoin:miter;stroke-opacity:1"
       d="m 97.426955,162.11722 0.0709,-19.82013 -5.38616,1.51191 v 10.3471 z"
       id="path1503" />
    <path
       style="display:inline;fill:#ffffff;fill-opacity:1;stroke:#000000;stroke-width:0.264583px;stroke-linecap:butt;stroke-linejoin:miter;stroke-opacity:1"
       d="m 69.079089,163.44397 -0.0709,-19.51619 c 3.577967,0.68634 5.386164,0.85088 5.386164,0.85088 v 10.82627 z"
       id="path1503-3" />
  </g>
</svg>
