<?xml version="1.0" standalone="no"?>
<!DOCTYPE svg PUBLIC "-//W3C//DTD SVG 20010904//EN"
 "http://www.w3.org/TR/2001/REC-SVG-20010904/DTD/svg10.dtd">
<svg version="1.0" xmlns="http://www.w3.org/2000/svg"
 width="1920.000000pt" height="1080.000000pt" viewBox="0 0 1920.000000 1080.000000"
 preserveAspectRatio="xMidYMid meet">

<g transform="translate(0.000000,1080.000000) scale(0.100000,-0.100000)"
fill="#000000" stroke="none">
<path d="M7172 8218 c-57 -104 -482 -944 -482 -952 0 -3 973 -6 2163 -6 l2162
0 50 -93 c28 -50 214 -385 414 -743 l362 -652 -427 -826 -428 -826 -665 0
-666 -1 -245 -430 c-135 -236 -246 -434 -248 -440 -2 -5 431 -9 1155 -9 l1158
0 470 832 c378 672 808 1430 937 1657 l20 36 -713 1262 -714 1263 -2132 0
-2132 0 -39 -72z"/>
<path d="M7876 6558 c-180 -327 -346 -630 -346 -634 0 -2 662 -4 1470 -4
l1470 0 0 350 0 350 -1280 0 -1279 0 -35 -62z"/>
<path d="M8402 4947 c-194 -364 -426 -799 -516 -967 -89 -168 -215 -403 -279
-523 l-115 -217 585 2 584 3 93 175 c51 96 319 605 595 1130 277 525 516 979
532 1008 l29 52 -577 0 -578 0 -353 -663z"/>
</g>
</svg>
